<?xml version="1.0" encoding="iso-8859-1"?>
<!-- Uploaded to: SVG Repo, www.svgrepo.com, Generator: SVG Repo Mixer Tools -->
<svg height="800px" width="800px" version="1.1" id="Layer_1" xmlns="http://www.w3.org/2000/svg" xmlns:xlink="http://www.w3.org/1999/xlink" 
	 viewBox="0 0 504 504" xml:space="preserve">
<circle style="fill:#FFD05B;" cx="252" cy="252" r="252"/>
<circle style="fill:#E6E9EE;" cx="252" cy="252" r="167.3"/>
<circle style="fill:#CED5E0;" cx="252" cy="252" r="156.6"/>
<circle style="fill:#E6E9EE;" cx="252" cy="252" r="81.5"/>
<path style="fill:#FFFFFF;" d="M158.9,165.3L158.9,165.3c-1.2,0.7-1.6,2.3-0.9,3.5l30.5,53.1c0.9,1.6,0.4,3.6-1.2,4.6l0,0
	c-1.6,0.9-3.6,0.5-4.6-1.1L150,173.7c-0.8-1.2-2.3-1.6-3.5-0.8l-0.5,0.3c-1.2,0.7-1.6,2.3-0.9,3.5l30.5,53.1
	c0.9,1.6,0.4,3.6-1.2,4.6l0,0c-1.6,0.9-3.6,0.5-4.6-1.1l-32.7-51.8c-0.8-1.2-2.3-1.6-3.5-0.8l-0.5,0.3c-1.2,0.7-1.6,2.3-0.9,3.5
	l30.5,53.1c0.9,1.6,0.4,3.6-1.2,4.5l0,0c-1.6,0.9-3.6,0.5-4.6-1.1l-32.7-51.8c-0.8-1.2-2.3-1.6-3.5-0.8c-1.2,0.7-1.6,2.3-0.9,3.6
	l42.5,70.5c4.7,7.9,13.2,12.1,21.7,11.9c4.9-0.1,9.3,2.7,11.8,6.9l50.8,84.2l10-6l-50.8-84.3c-2.5-4.1-3-9.2-0.7-13.4
	c4.2-7.8,4.2-17.6-0.7-25.7l-42.1-69.8C161.7,165,160.1,164.6,158.9,165.3z"/>
<path style="fill:#FF7058;" d="M296.2,428.7l-6.7,4c-6.2,3.8-14.5,1.4-18.1-5.2l-52.5-94.7c-3.5-6.3-1.5-14,4.4-17.6l0,0
	c5.9-3.6,13.7-1.7,17.6,4.3l59.2,90.6C304.2,416.5,302.4,424.9,296.2,428.7z"/>
<path style="fill:#FFFFFF;" d="M285.6,268.8c24.7,17.6,64.5,23.3,77.8,4.6c13.3-18.6-5-54.5-29.7-72.1c-19-13.5-36.2-12.3-49.2-2.6
	c-4.6,3.5-11.1,3.4-15.8,0l-78.4-56l-6.8,9.5l78.4,56c4.7,3.4,6.9,9.4,5.1,14.9C262.2,238.6,266.7,255.2,285.6,268.8z"/>
<path style="fill:#4CDBC4;" d="M120,104.4l4.5-6.4c4.2-5.9,12.7-7,18.7-2.4l85.8,66.1c5.7,4.4,7,12.3,3,17.9l0,0
	c-4,5.6-11.9,7-17.9,3l-90.3-59.7C117.5,118.7,115.8,110.3,120,104.4z"/>
</svg>