<svg viewBox="0 0 14 14" xmlns="http://www.w3.org/2000/svg"><path d="m4.1960651 12.981368c-.69813-.107-1.27726-.4694-1.65855-1.038-.14619-.2179-.28312-.5456-.332-.7943-.041-.2085-.0443-.3091-.0443-1.3593004v-1.0544h-.10839c-.18893 0-.38036-.044-.54554-.1241-.25783-.1257-.42187-.3835-.47603-.7482-.0243-.1637-.0242-.3273.00032-.4098.0746-.2512.474-.2841.573-.047.0128.031.019.086.0191.1709.00048.2504.0396.384.13666.4671.0705.06.15264.085.28473.086l.10999.0006.003-.7424.003-.7425h4.82111 4.8211199v.7388.7389l.0443.01c.0243 0 .0862.01.13748 0 .28885-.021.39163-.167.39238-.5559.00026-.134.0157-.1922.065-.2451.10822-.116.33709-.1141.45497 0 .0788.079.0971.1522.0869.3485-.0216.4146-.15787.7141-.39719.8727-.17147.1135-.34921.1645-.60961.1749l-.17415.01v1.0437c0 1.0738004-.004 1.1715004-.0509 1.4032004-.0654.3198-.22379.6674-.42222.9266-.0792.1034-.26046.29-.36399.3747-.25427.208-.55003.3587-.86358.4398-.3005499.078-.1320399.074-3.0976099.073-2.22783 0-2.7185 0-2.80928-.018zm-2.0348-7.1607004v-.4339h2.03257 2.03258l.0203-.064c.0251-.08.0939-.1961.14988-.2538l.042-.043v-.3203-.3203h.54384.54383v.3203.3203l.042.043c.056.058.12481.1742.14989.2538l.0203.064h2.03258 2.0325799v.4339.4338h-4.8212099-4.82121v-.4338zm1.84183-.9654c-.0758-.019-.14721-.071-.19205-.1384-.0793-.1197-.0794-.2194-.00042-.3708.0748-.1433.099-.2218.10662-.3463.0131-.2132-.0342-.3758-.24003-.825-.18883-.412-.22078-.5047-.24637-.7149-.042-.3451.10163-.7351.38339-1.0408.10308-.1118.22055-.1483.35326-.1097.0788.023.1704.097.20629.1677.0281.055.0316.1528.007.2102-.009.022-.041.067-.0708.1004-.0934.1054-.13061.1587-.17454.2504-.0569.1188-.0722.2006-.0653.3483.007.1513.0488.2822.19192.6025.1247.2791.17235.4045.21226.5587.0991.3826.0701.6902-.0966 1.027-.0587.1185-.12664.2159-.17591.252-.0453.033-.13213.046-.19908.029zm1.37442-.095c-.0543-.017-.15585-.1102-.18869-.1726-.0369-.07-.0379-.213-.002-.2824.17214-.3329.1826-.3697.18211-.6416-.00043-.2403-.0135-.3085-.13939-.7272-.14385-.4784-.17348-.6263-.17399-.8683-.00065-.3123.0723-.5618.23883-.8173.12805-.1965.1984-.2507.32545-.25100005.0869-.0002.17431.04.23644.10900005.0598.066.0813.1183.0813.1961 0 .077-.0183.1214-.10404.2503-.16023.2408-.19627.4991-.11701.8389.0131.056.0631.2276.11098.3807.14244.4552.1808.6736.16684.9499-.0127.252-.068.4615-.18561.7027-.0932.1913-.15923.2853-.22462.3199-.0582.031-.13558.036-.2066.013z"/></svg>